<svg width="40" height="40" viewBox="0 0 40 40" fill="none" xmlns="http://www.w3.org/2000/svg">
<path d="M31.6667 18.3333H21.6667V8.33332C21.6667 7.8913 21.4911 7.46737 21.1785 7.15481C20.8659 6.84225 20.442 6.66666 20 6.66666C19.558 6.66666 19.134 6.84225 18.8215 7.15481C18.5089 7.46737 18.3333 7.8913 18.3333 8.33332V18.3333H8.33333C7.8913 18.3333 7.46738 18.5089 7.15482 18.8215C6.84226 19.134 6.66666 19.558 6.66666 20C6.66666 20.442 6.84226 20.8659 7.15482 21.1785C7.46738 21.4911 7.8913 21.6667 8.33333 21.6667H18.3333V31.6667C18.3333 32.1087 18.5089 32.5326 18.8215 32.8452C19.134 33.1577 19.558 33.3333 20 33.3333C20.442 33.3333 20.8659 33.1577 21.1785 32.8452C21.4911 32.5326 21.6667 32.1087 21.6667 31.6667V21.6667H31.6667C32.1087 21.6667 32.5326 21.4911 32.8452 21.1785C33.1577 20.8659 33.3333 20.442 33.3333 20C33.3333 19.558 33.1577 19.134 32.8452 18.8215C32.5326 18.5089 32.1087 18.3333 31.6667 18.3333Z" fill="#195557"/>
</svg>
